<?xml version="1.0" encoding="UTF-8"?>
<!-- Created with Inkscape (http://www.inkscape.org/) -->
<svg width="21.705mm" height="21.705mm" version="1.1" viewBox="0 0 21.705 21.705" xmlns="http://www.w3.org/2000/svg" xmlns:cc="http://creativecommons.org/ns#" xmlns:dc="http://purl.org/dc/elements/1.1/" xmlns:rdf="http://www.w3.org/1999/02/22-rdf-syntax-ns#">
 <title>File Test Suite logo</title>
 <metadata>
  <rdf:RDF>
   <cc:Work rdf:about="">
    <dc:title>File Test Suite logo</dc:title>
    <dc:creator>
     <cc:Agent>
      <dc:title>KOLANICH</dc:title>
     </cc:Agent>
    </dc:creator>
   </cc:Work>
  </rdf:RDF>
 </metadata>
 <path d="m6.8821 6.6786c0.00131 0.10584-0.00413 0.28242-2.972e-4 0.45506 0.00373 0.16716-0.00131 0.32839-0.00212 0.39146 2.02-0.020901 4.4691-0.012791 6.2691-2e-3 -1e-3 0.73205-0.01189 1.4975-0.0132 2.2295-2.1189 5e-3 -4.2379 9e-3 -6.3568 0.014v11.931l-3.3108-6e-3v-11.925l-3.3108-0.015001c-0.003325-0.73204-0.00675-1.4641-0.010075-2.1961h3.3108v-0.88844m0.00877 0.020961c-0.038924-1.7807 0.26725-3.8421 2.2951-5.0019 3.0178-1.7902 7.1266-1.8479 10.774-1.5489 1.8815 0.11019 5.0684 1.3332 5.0684 1.3332 0.08851 0.32398 0.1462 1.2396-0.06457 1.6893-0.2158 0.46052-0.83371 0.84643-1.4614 0.80817-1.8853-0.75132-3.9158-1.1919-6.017-1.4625-1.9-0.015261-4.0096-0.18838-5.6946 0.60893-1.3355 0.89824-1.5326 2.2982-1.4836 3.5671-1.1332-0.014661-2.3312 0.019201-3.4164 0.0066z" fill="#5576ab" stroke-width=".29894"/>
 <path d="m21.373 15.563c0 0.81674-0.21214 1.8516-0.66177 2.5662-0.40875 0.71465-1.0628 1.3272-1.9621 1.8377-0.89926 0.51046-2.0234 0.90607-3.3722 1.1868-1.308 0.30627-2.8612 0.45942-4.6598 0.45942-2.3299 0-4.3123-0.14038-5.9474-0.42114-1.635-0.28075-3.0043-0.61256-4.108-0.9954l1.4715-2.6034c0.94013 0.3318 2.1664 0.63808 3.6788 0.91884 1.5124 0.28075 3.0452 0.42113 4.5985 0.42113 1.7577 0 3.2087-0.21695 4.3532-0.65084 1.1445-0.4339 2.1204-1.5476 2.1204-2.6706z" fill="#ffd343" stroke-width=".40374"/>
 <g transform="matrix(1.3243 0 0 .99824 -120.85 -92.037)" fill="#008000" stroke-width=".26" aria-label="t">
  <path d="m93.587 94.868h2.9m4.6935 4.8672 2e-3 2.2328-4.7 0.026 0.0031 6.2479c7.04e-4 1.4 0.19 2.3 0.57 2.7 0.39 0.4 1.2 0.6 2.4 0.6h2.9v2.4h-2.9c-2.2 0-3.7-0.41-4.6-1.2-0.84-0.83-1.2989-2.3-1.3-4.5l-0.0031-6.2479-2.3-0.03"/>
 </g>
 <g fill="#ffd343">
  <path d="m6.8774 7.5294c0.024968 0.34771 0.42436 0.61546 0.68884 0.80455 0.73576 0.35732 1.7813 0.72241 2.844 1.0286 1.1037 0.28075 2.2891 0.56151 3.5561 0.84227 1.308 0.28075 2.4934 0.65084 3.5561 1.1102 1.1037 0.45942 2.0234 1.0464 2.759 1.7611 0.73576 0.68913 1.0985 1.5392 1.0985 2.6877l-4.5039-0.05322c0-0.76569-0.76386-1.1285-1.4997-1.5625-0.73576-0.4339-1.6555-0.79122-2.759-1.0719-1.0628-0.30627-2.5112-0.62655-3.8191-0.88178-1.2672-0.28075-2.2038-0.64011-3.3708-1.1752-1.0628-0.4339-1.1402-0.84326-1.763-1.7895-0.2318-1.094-0.21509-1.0815-0.24528-1.7258" stroke-width=".40374"/>
  <ellipse cx="20.789" cy="2.0263" rx=".22469" ry=".19405" stroke-linecap="round" stroke-linejoin="round" stroke-width=".29955"/>
  <path transform="matrix(.8929 .45025 -.44919 .89344 0 0)" d="m19.435-6.4217 1.1891-0.12604c-0.0547 0.17984-0.07746 0.23104-0.15958 0.38073l-1.0255 0.11111z" stroke-linecap="round" stroke-linejoin="round" stroke-width=".62732"/>
 </g>
</svg>
